<?xml version="1.0" encoding="utf-8"?>
<!-- Generator: Adobe Illustrator 15.1.0, SVG Export Plug-In . SVG Version: 6.00 Build 0)  -->
<!DOCTYPE svg PUBLIC "-//W3C//DTD SVG 1.1//EN" "http://www.w3.org/Graphics/SVG/1.1/DTD/svg11.dtd">
<svg version="1.1" id="Layer_1" xmlns="http://www.w3.org/2000/svg" xmlns:xlink="http://www.w3.org/1999/xlink" x="0px" y="0px"
	 width="792px" height="612px" viewBox="0 0 792 612" enable-background="new 0 0 792 612" xml:space="preserve">
<path fill-rule="evenodd" fill="#663399" clip-rule="evenodd" stroke="#663399" stroke-width="3" stroke-linecap="round" stroke-linejoin="round" stroke-miterlimit="22.9256" d="
	M208.952,262.713c-2.259,5.692-2.396,9.987-3.251,14.697c-1.422,7.847-4.836,16.847-19.672,35.121
	c-14.837,18.274-41.097,45.822-56.433,62.174c-15.335,16.351-19.746,21.505-20.242,28.426c-0.495,6.921,2.923,15.609,3.463,25.313
	c0.541,9.705-1.801,20.425-1.16,28.443c0.644,8.02,4.266,13.337,20.354,17.56c16.089,4.223,44.643,7.347,58.599,3.176
	c13.958-4.172,13.321-15.641,21.639-24.421c8.319-8.78,25.596-14.872,39.68-20.287c14.084-5.416,24.978-10.157,36.417-12.091
	c11.44-1.935,23.427-1.064,36.155-2.704c12.729-1.64,26.198-5.789,37.322-16.908c11.125-11.119,19.905-29.206,22.233-29.577
	c2.328-0.371,2.705,18.104-10.959,39.863c-25.038,39.867-86.493,86.698-131.009,109.398c-17.849,9.102-29.252,13.641-23.114,20.172
	c6.136,6.531,29.813,15.055,75.905,17.582c46.093,2.529,114.599-0.937,161.837-10.247c19.476-3.837,54.662-19.227,74.014-12.62
	c8.825,3.013,16.692,10.123,28.166,17.728s26.554,15.702,43.601,19.752c17.046,4.049,36.06,4.049,52.669,1.383
	c16.611-2.667,30.815-8,29.941-9.679c-0.874-1.68-16.827,0.296-31.689-0.79c-14.861-1.086-28.629-5.234-39.011-9.777
	c-10.381-4.543-17.374-9.48-23.275-15.405c-5.9-5.926-10.708-12.839-13.768-22.715c-1.617-5.22-2.746-11.266-3.325-16.039
	c2.792,4.166,5.873,8.603,9.208,12.875c11.559,14.812,26.151,27.643,45.729,33.161c19.578,5.517,44.141,3.719,48.972,1.896
	c4.832-1.824-10.067-3.675-20.304-14.574c-8.794-9.363-14.145-25.405-14.574-40.56c2.249,1.745,4.302,2.615,6.629,3.443
	c3.606,1.283,7.868,2.469,12.73,3.062c4.863,0.592,10.326,0.592,14.533-0.148c4.208-0.741,7.157-2.222,7.048-3.11
	c-0.108-0.89-3.277-1.186-6.61-2.717c-3.333-1.53-6.83-4.295-9.89-7.851s-5.682-7.901-7.437-13.373s-2.641-12.069-6.101-21.243
	c-3.458-9.174-9.488-20.925-16.807-29.722c-1.8-2.165-3.679-4.149-5.599-5.949c-0.363-0.386-0.729-0.771-1.099-1.155
	c12.534-0.629,38.547,31.418,45.979,39.715c8.116,9.06,18.393,16.116,27.82,20.584c9.428,4.467,18.006,6.343,27.213,6.146
	c9.206-0.198,19.039-2.471,19.83-4.297c0.792-1.826-7.459-3.207-15.083-7.058c-7.622-3.85-14.615-10.17-20.105-17.281
	c-5.49-7.113-9.478-15.016-14.563-27.976c-5.086-12.961-11.271-30.977-27.75-45.614c-10.484-9.313-25.136-17.257-39.796-23.013
	c6.743-4.417,19.609-1.108,30.313,4.187c10.704,5.294,20.943,20.287,33.311,26.486c12.369,6.199,26.859,9.806,38.727,9.904
	c11.868,0.099,21.113-3.313,20.055-5.363c-1.06-2.052-12.423-2.742-20.293-11.532c-7.867-8.789-12.24-25.677-13.936-39.552
	c-1.694-13.876-0.71-24.739-8.982-38.102c-6.984-11.284-20.567-24.349-37.994-33.214c7.189-1.525,12.287-3.84,17.094-6.702
	c7.213-4.297,13.769-9.827,19.155-16.815c5.386-6.99,9.601-15.439,8.211-16.997c-1.389-1.558-8.382,3.775-19.747,8.517
	c-11.364,4.739-27.1,8.887-43.351,9.396c-3.199,0.1-58.526-4.655-37.094-5.584c13.769-0.593,26.313-3.87,38.049-10.05
	c11.736-6.181,22.664-15.268,31.623-28.105c8.961-12.838,15.954-29.429,12.852-31.05c-3.104-1.622-16.305,11.728-36.018,15.539
	c-19.712,3.811-45.938-1.918-64.514-14.065c-18.858-12.331-49.226-48.26-46.391-49.373c2.312,1.251,6.436,3.857,11.924,6.09
	c10.852,4.412,27.031,7.362,41.678,6.467c14.646-0.895,27.76-5.634,28.197-7.412c0.437-1.778-11.802-0.593-22.511-1.383
	c-10.708-0.791-19.888-3.555-32.378-10.884s-28.292-19.224-45.775-27.124C518.734,80.858,499.568,76.95,480.281,77
	c-19.287,0.049-38.694,4.057-57.073,11.112c-17.842,6.85-34.714,16.574-51.557,26.382c-1.352,0.786-1.78,1.172-1.001-0.429
	c2.774-5.698,15.394-21.667,32.784-30.378c19.014-9.524,43.728-10.37,43.671-12.289c-0.057-1.919-24.883-4.911-49.37,3.611
	c-24.488,8.522-48.637,28.557-61.968,45.741c-3.574,4.607-6.37,9.009-8.481,13.179c-3.401,6.729-1.235,7.831-6.939,2.688
	c-7.44-6.705-15.183-13.119-23.088-18.227c-19.697-12.726-40.414-17.351-49.334-15.998c-8.919,1.354-6.042,8.686-2.734,17.114
	c3.307,8.429,7.042,17.955,8.38,26.321c1.338,8.365,0.278,15.572,2.224,21.625c1.945,6.052,6.896,10.95,9.958,14.968
	c12.087,15.859-14.578,15.203-27.23,10.24c-15.086-5.917-38.909-20.73-69.178-44.433c-30.268-23.703-66.983-56.292-93.101-79.599
	C50.126,45.323,34.61,31.299,36.686,38.312c2.077,7.012,21.746,35.059,47.207,65.081s56.712,62.02,79.55,85.327
	c22.838,23.307,37.262,37.923,43.194,49.583C211.949,248.745,210.452,256.813,208.952,262.713z"/>
</svg>
